<svg xmlns="http://www.w3.org/2000/svg" xmlns:xlink="http://www.w3.org/1999/xlink" width="500" zoomAndPan="magnify" viewBox="0 0 375 374.999991" height="500" preserveAspectRatio="xMidYMid meet" version="1.0"><defs><g/></defs><g fill="#dbc8ff" fill-opacity="1"><g transform="translate(30.838506, 174.528615)"><g><path d="M 96.570312 -25.449219 C 65.886719 -25.449219 41.386719 -47.570312 41.386719 -83.25 C 41.386719 -116.789062 62.316406 -141.046875 96.570312 -141.046875 C 111.792969 -141.046875 125.824219 -134.863281 135.816406 -124.875 L 155.320312 -144.378906 C 140.335938 -159.601562 119.640625 -168.878906 96.570312 -168.878906 C 47.808594 -168.878906 13.082031 -133.4375 13.082031 -83.25 C 13.082031 -30.921875 50.664062 2.378906 96.570312 2.378906 C 119.640625 2.378906 140.335938 -6.898438 155.320312 -21.882812 L 135.816406 -41.625 C 125.824219 -31.636719 111.792969 -25.449219 96.570312 -25.449219 Z M 96.570312 -25.449219 "/></g></g></g><g fill="#dbc8ff" fill-opacity="1"><g transform="translate(186.395841, 174.528615)"><g><path d="M 75.398438 -45.191406 C 109.414062 -45.191406 137.242188 -73.023438 137.242188 -107.035156 C 137.242188 -141.046875 109.414062 -168.878906 75.398438 -168.878906 C 41.386719 -168.878906 13.558594 -141.046875 13.558594 -107.035156 C 13.558594 -73.023438 41.386719 -45.191406 75.398438 -45.191406 Z M 75.398438 -141.285156 C 94.429688 -141.285156 109.652344 -126.0625 109.652344 -107.035156 C 109.652344 -88.007812 94.429688 -72.785156 75.398438 -72.785156 C 56.371094 -72.785156 41.148438 -88.007812 41.148438 -107.035156 C 41.148438 -126.0625 56.371094 -141.285156 75.398438 -141.285156 Z M 129.632812 0 L 129.632812 -27.589844 L 19.742188 -27.589844 L 19.742188 0 Z M 129.632812 0 "/></g></g></g><g fill="#dbc8ff" fill-opacity="1"><g transform="translate(21.077416, 364.581155)"><g><path d="M 157.222656 -166.5 L 18.789062 -166.5 L 18.789062 -66.835938 C 18.789062 -65.171875 19.027344 -49.234375 27.117188 -33.0625 C 38.53125 -10.226562 60.175781 2.378906 88.007812 2.378906 C 115.835938 2.378906 137.480469 -10.226562 148.898438 -33.0625 C 156.984375 -49.234375 157.222656 -65.171875 157.222656 -66.835938 Z M 123.683594 -44.71875 C 117.023438 -31.636719 105.371094 -25.449219 88.007812 -25.449219 C 70.882812 -25.449219 59.226562 -31.636719 52.328125 -44.71875 C 46.621094 -55.421875 46.382812 -66.835938 46.382812 -66.835938 L 46.382812 -138.671875 L 129.632812 -138.671875 L 129.632812 -67.074219 C 129.632812 -66.835938 129.394531 -55.421875 123.683594 -44.71875 Z M 123.683594 -44.71875 "/></g></g></g><g fill="#dbc8ff" fill-opacity="1"><g transform="translate(187.576129, 364.581155)"><g><path d="M 63.507812 -83.25 L 4.042969 0 L 38.058594 0 L 80.632812 -59.464844 L 122.972656 0 L 156.984375 0 L 97.519531 -83.25 L 156.984375 -166.5 L 122.972656 -166.5 L 80.632812 -107.035156 L 38.058594 -166.5 L 4.042969 -166.5 Z M 63.507812 -83.25 "/></g></g></g></svg>